PathFileType  4	(X/Y/Z) C:\Users\antoi\Documents\MyRepositories\mobilecap\ResultsAnalysis
DataRate	CameraRate	NumFrames	NumMarkers	Units	OrigDataRate	OrigDataStartFrame	OrigNumFrames
100.0	100.0	7	51	mm	100.0	51	134
Frame#	Time	r_knee			r_shank_antsup			r_ankle			r_calc			r_5meta			r_toe			L_knee			L_shank_antsup			L_ankle			L_calc			L_5meta			L_toe			r_sh2			r_sh3			r_sh4			L_sh2			L_sh3			r_thigh1			r_thigh2			r_thigh3			r_thigh4			r_thigh5			L_thigh1			L_thigh2			L_thigh3			L_thigh4			r.ASIS			r.PSIS			L.ASIS			L.PSIS			C7			R_Shoulder			L_Shoulder			R_Sternum			L_Sternum			R_humerus			R_elbow_med			R_elbow_lat			R_forearm			R_wrist_radius			R_wrist_ulna			L_humerus			L_elbow_med			L_elbow_lat			L_forearm			L_wrist_radius			L_wrist_ulna			R_HJC			L_HJC			R_HJC_reg			L_HJC_reg			
		X1	Y1	Z1	X2	Y2	Z2	X3	Y3	Z3	X4	Y4	Z4	X5	Y5	Z5	X6	Y6	Z6	X7	Y7	Z7	X8	Y8	Z8	X9	Y9	Z9	X10	Y10	Z10	X11	Y11	Z11	X12	Y12	Z12	X13	Y13	Z13	X14	Y14	Z14	X15	Y15	Z15	X16	Y16	Z16	X17	Y17	Z17	X18	Y18	Z18	X19	Y19	Z19	X20	Y20	Z20	X21	Y21	Z21	X22	Y22	Z22	X23	Y23	Z23	X24	Y24	Z24	X25	Y25	Z25	X26	Y26	Z26	X27	Y27	Z27	X28	Y28	Z28	X29	Y29	Z29	X30	Y30	Z30	X31	Y31	Z31	X32	Y32	Z32	X33	Y33	Z33	X34	Y34	Z34	X35	Y35	Z35	X36	Y36	Z36	X37	Y37	Z37	X38	Y38	Z38	X39	Y39	Z39	X40	Y40	Z40	X41	Y41	Z41	X42	Y42	Z42	X43	Y43	Z43	X44	Y44	Z44	X45	Y45	Z45	X46	Y46	Z46	X47	Y47	Z47	X48	Y48	Z48	X49	Y49	Z49	X50	Y50	Z50	X51	Y51	Z51	

51	0.50000000	407.97066	484.11358	-25.99261	420.17854	407.02177	-46.55039	245.47611	109.27797	-66.99768	172.05339	84.48476	-106.62295	336.74475	43.67014	-28.04557	391.03143	65.32024	-81.01799	664.07575	494.18435	-303.16364	723.66547	421.73493	-318.61216	799.64169	111.67448	-294.87195	767.26982	54.98892	-233.91442	918.01014	91.54197	-348.59287	950.32573	144.19304	-308.60501	363.97832	305.68423	-28.01677	351.16001	440.80118	-13.17489	298.58340	341.29921	-17.38664	640.25897	398.84284	-298.66735	681.53683	285.05974	-308.84962	564.58856	771.74159	10.24370	529.14238	665.05343	-4.95101	424.22160	687.40683	20.45095	459.35627	798.74052	45.20399	472.42835	656.81990	26.43337	578.85399	747.06013	-350.38021	642.39317	625.86595	-331.24873	485.91462	701.96577	-293.87904	556.63046	578.60233	-284.58103	609.12159	944.99608	-27.01280	414.16614	991.84165	-96.47519	593.51311	929.10122	-276.24867	398.97060	990.40692	-195.77199	406.98253	1392.74903	-144.95837	543.50192	1362.64595	8.72564	444.69406	1360.80078	-333.27353	549.58261	1367.39500	-153.69682	545.90959	1368.66777	-197.31203	594.86709	1234.17921	58.81183	592.24647	1012.68822	19.67777	624.69039	1035.43580	80.04106	752.10515	984.34294	43.22473	858.95273	910.06085	3.15333	849.66653	885.46708	27.54090	410.86192	1249.24276	-384.00374	341.77801	1038.33174	-274.29141	312.55031	1061.71461	-344.31129	305.53151	953.53483	-378.23560	239.04974	806.30775	-382.87407	209.91996	824.88016	-384.08176	524.87990	869.28540	-42.94676	511.55233	860.52763	-248.80611	537.47740	870.18982	-49.96476	512.49792	867.83015	-213.19629	
52	0.51000000	418.75288	482.68040	-26.83412	429.54104	404.97918	-47.23816	247.38684	111.56013	-66.52143	173.59953	88.36134	-106.03532	336.89861	43.60213	-27.55032	392.02088	64.81798	-80.60466	678.84561	493.81180	-304.69378	736.77394	419.29089	-318.53711	803.41988	107.94254	-292.72020	768.57724	53.41826	-232.51865	921.92355	85.24729	-344.76976	955.40968	136.53079	-303.97812	370.98291	305.13307	-28.27795	361.50527	440.47936	-13.92669	306.47748	342.38029	-17.69084	652.25484	398.77806	-300.13352	690.56571	283.84227	-309.48844	575.90204	770.22886	9.29095	540.54354	663.55191	-5.58216	435.32698	686.06500	19.07614	470.56233	797.50765	43.71487	483.49571	655.50676	25.52628	594.63253	747.47044	-351.10709	658.08948	626.23100	-332.06526	500.75403	701.51536	-297.48757	571.32565	578.28681	-287.82945	621.38133	943.24082	-28.30095	426.51237	990.19203	-98.22532	606.43577	927.94671	-277.64852	411.56813	988.92176	-197.52023	418.91009	1391.34381	-147.12868	555.53693	1361.30874	6.69169	456.82546	1359.41053	-335.40764	561.67813	1366.20283	-155.85923	558.04848	1367.48467	-199.49689	606.41914	1232.59423	56.83363	603.29975	1011.09211	17.53866	635.56816	1033.75022	78.00229	762.93329	982.11383	41.47141	869.47920	907.47158	1.44845	859.96570	882.84285	25.66179	422.76170	1248.09594	-386.23892	352.06261	1037.87104	-275.91495	322.72530	1061.56948	-345.82058	314.50965	953.62947	-379.84618	246.64538	807.03548	-384.38893	217.70139	825.72964	-385.20686	537.18689	867.54068	-44.66080	524.41574	859.25624	-250.57350	549.80926	868.55115	-51.56431	525.22980	866.46113	-214.88282	
53	0.52000000	430.17680	481.35569	-27.80537	439.40157	403.01424	-47.96696	249.63923	114.28688	-66.12590	175.53133	92.96869	-105.51381	337.04499	43.56393	-27.06866	393.18947	64.26100	-80.18341	692.62170	493.28100	-306.05405	749.39354	417.05644	-318.43933	807.41335	104.73886	-290.66426	769.89711	52.86660	-231.12605	925.53614	79.20462	-341.13835	960.53718	128.80456	-299.56409	378.35009	304.80013	-28.60642	372.39500	440.29871	-14.87126	314.80256	343.74325	-18.17212	663.92046	398.65890	-301.39513	699.57992	282.72170	-309.93435	587.44069	768.92511	8.25038	552.27574	662.22710	-6.32295	446.70641	684.81347	17.47050	481.90872	796.39525	41.95024	494.85717	654.32294	24.45038	610.44808	747.98154	-352.03108	673.45252	626.48362	-333.04767	515.52315	701.47360	-301.24344	585.62903	578.21071	-291.03560	633.79397	941.57616	-29.59868	439.03862	988.76284	-99.99945	619.59200	927.24581	-279.14719	424.41144	987.75368	-199.31410	430.92599	1390.22741	-149.41624	567.56843	1360.33552	4.59559	469.10199	1358.23557	-337.63213	573.83857	1365.31498	-158.08675	570.27906	1366.57379	-201.74916	617.76979	1231.32117	54.90119	614.13455	1009.85482	15.27882	646.10063	1032.33757	75.92345	773.39782	979.91412	39.89875	879.56824	904.68091	0.09751	869.74929	880.05889	24.17727	434.95516	1247.11026	-388.51877	362.96429	1037.42063	-277.74961	333.58353	1061.35691	-347.60388	324.54065	953.60810	-381.69028	255.59155	807.52108	-386.17904	226.82667	826.30489	-386.77728	549.65992	865.91755	-46.54926	537.51278	858.39829	-252.52558	562.25099	867.08572	-53.30365	538.17649	865.42498	-216.77072	
54	0.53000000	442.32031	480.17421	-28.87930	449.81779	401.17897	-48.69987	252.32517	117.54719	-65.80255	177.93376	98.38912	-105.07843	337.28144	43.65588	-26.64852	394.55171	63.62072	-79.76624	705.30075	492.60093	-307.14099	761.60999	415.14073	-318.30532	812.01867	102.19605	-288.85116	771.76161	53.25657	-229.82868	929.15373	73.63194	-337.95808	965.96053	121.28332	-295.66787	386.11916	304.75590	-28.97721	383.87959	440.32715	-15.97347	323.61451	345.45206	-18.82899	675.38115	398.47932	-302.47276	708.83946	281.75888	-310.21803	599.29384	767.86240	7.08648	564.38939	661.11021	-7.23787	458.45742	683.67865	15.61614	493.48881	795.42234	39.89953	506.60578	653.28574	23.16593	625.94278	748.40515	-353.21962	688.13384	626.46991	-334.12252	529.95026	701.80091	-304.88459	599.27238	578.29335	-293.92901	646.32789	940.09105	-30.90328	451.74535	987.57407	-101.84411	633.00117	927.00739	-280.72528	437.47079	986.93965	-201.19574	443.02883	1389.41708	-151.80935	579.58182	1359.73362	2.45521	481.54094	1357.29373	-339.93295	586.06196	1364.73276	-160.36015	582.60303	1365.93978	-204.04873	628.94082	1230.37694	53.01628	624.74987	1008.99239	12.91350	656.29470	1031.21715	73.82186	783.50405	977.78373	38.50035	889.21620	901.74373	-0.91486	879.04395	877.16226	23.06606	447.44052	1246.30260	-390.81257	374.46658	1036.99147	-279.79249	345.13461	1061.08474	-349.66703	335.62135	953.46303	-383.76791	265.91270	807.74023	-388.24617	237.29584	826.58784	-388.79976	562.28271	864.48551	-48.60127	550.86268	857.96764	-254.64868	574.84975	865.80348	-55.17246	551.33715	864.76013	-218.83301	
55	0.54000000	455.28017	479.13208	-29.99759	460.88227	399.49557	-49.37641	255.54753	121.41677	-65.52216	180.91045	104.69450	-104.72158	337.71147	43.96973	-26.32726	396.11251	62.87443	-79.36200	717.09338	491.84142	-307.94691	773.50121	413.52669	-318.15728	817.17758	100.26262	-287.35445	774.25947	54.32865	-228.67623	932.78882	68.51550	-335.37670	971.59730	114.04660	-292.47114	394.36826	305.04551	-29.33895	396.05453	440.60127	-17.17581	333.01630	347.54482	-19.62897	686.71293	398.28532	-303.40327	718.35040	280.97953	-310.37484	611.54342	767.06207	5.77376	576.96396	660.21002	-8.36353	470.68627	682.65913	13.53106	505.39136	794.58470	37.57816	518.85385	652.38979	21.66524	640.85341	748.62300	-354.69328	701.97060	626.14130	-335.24497	543.86306	702.41280	-308.21759	612.16820	578.46001	-296.35913	658.93999	938.87934	-32.20844	464.62121	986.63593	-103.80719	646.67506	927.20602	-282.34427	450.70963	986.49175	-203.20398	455.21546	1388.90824	-154.29993	591.56109	1359.49146	0.28171	494.15574	1356.59471	-342.29841	598.33481	1364.44543	-162.66016	595.00792	1365.58198	-206.37706	639.96019	1229.76604	51.17380	635.13889	1008.50914	10.47068	666.16110	1030.39945	71.71986	793.26172	975.76142	37.27189	898.42473	898.71405	-1.60395	887.89149	874.20196	22.31826	460.21931	1245.68142	-393.11098	386.55950	1036.59563	-282.04250	357.38215	1060.76225	-352.00984	347.73705	953.19360	-386.07361	277.60961	807.67672	-390.59147	249.09304	826.56791	-391.26912	575.02958	863.31459	-50.78431	564.47822	857.94636	-256.90668	587.64163	864.71692	-57.14647	564.70800	864.48246	-221.02024	
56	0.55000000	469.16576	478.18631	-31.07299	472.71787	397.94756	-49.91540	259.41668	125.94220	-65.23948	184.59203	111.94403	-104.41243	338.41693	44.56631	-26.12040	397.86936	62.01161	-78.97741	728.41203	491.09797	-308.54720	785.08305	412.10687	-318.03990	822.54127	98.79123	-286.17664	777.17578	55.75783	-227.68847	936.28391	63.76824	-333.43140	977.16259	107.11052	-290.01261	403.21957	305.67755	-29.61630	409.05545	441.11342	-18.40230	343.15417	350.02334	-20.50768	697.90289	398.13011	-304.23678	727.91438	280.37002	-310.45928	624.24810	766.52777	4.29443	590.09471	659.51099	-9.69766	483.49181	681.72323	11.27170	517.68532	793.85222	35.02256	531.71741	651.60613	19.97910	655.05479	748.60475	-356.42768	714.99944	625.55527	-336.40022	557.21779	703.18873	-311.13491	624.40848	578.65906	-298.30393	671.59190	938.01791	-33.51534	477.63928	985.94737	-105.92938	660.60230	927.78259	-283.96145	464.09224	986.38942	-205.37193	467.47491	1388.66720	-156.88831	603.48762	1359.57672	-1.92209	506.95483	1356.13460	-344.72391	610.63762	1364.42842	-164.97117	607.47373	1365.48769	-208.71674	650.85331	1229.47662	49.36476	645.28993	1008.39122	7.99183	675.71482	1029.88052	69.64667	802.67763	973.87678	36.21226	907.20371	895.63741	-1.98364	896.33413	871.22590	21.93541	473.29426	1245.24427	-395.42545	399.23916	1036.24508	-284.50023	370.31796	1060.39361	-354.62539	360.86362	952.80154	-388.59751	290.65464	807.32136	-393.21514	262.18700	826.23943	-394.16777	587.87202	862.45979	-53.05578	578.35482	858.28341	-259.25289	600.63414	863.84241	-59.20146	578.28401	864.57595	-223.28014	
57	0.56000000	484.09030	477.26453	-31.99529	485.46658	396.48088	-50.22365	264.05194	131.13508	-64.90257	189.14279	120.18542	-104.11387	339.45224	45.47800	-26.02255	399.81700	61.03690	-78.61784	739.67065	490.46105	-309.06619	796.31356	410.76271	-318.00113	827.69851	97.63036	-285.26769	780.18117	57.25944	-226.86419	939.44650	59.35241	-332.07324	982.33295	100.51571	-288.20945	412.83611	306.62150	-29.71982	423.04402	441.81042	-19.56121	354.20660	352.85012	-21.37460	708.86629	398.04789	-305.04681	737.26262	279.89784	-310.55506	637.43578	766.24333	2.63778	603.87503	658.97801	-11.19602	496.95591	680.81146	8.92611	530.41193	793.17153	32.28159	545.30159	650.88668	18.17647	668.57279	748.41403	-358.36073	727.41255	624.85792	-337.58916	570.09189	704.01222	-313.62076	636.20306	578.88024	-299.85629	684.25957	937.55023	-34.84079	490.75500	985.49637	-108.23542	674.73133	928.65228	-285.54661	477.58111	986.58229	-207.72330	479.78409	1388.63535	-159.58593	615.33578	1359.93966	-4.15729	519.94016	1355.89335	-347.21523	622.95104	1364.64738	-167.28395	619.98071	1365.63120	-211.05157	661.63805	1229.47904	47.57859	655.19315	1008.59991	5.53126	684.97702	1029.63984	67.63739	811.75531	972.14398	35.32520	915.57183	892.54811	-2.06604	904.40025	868.27704	21.92343	486.66911	1244.97358	-397.78451	412.49941	1035.94649	-287.16670	383.91719	1059.97267	-357.50283	374.96668	952.28642	-391.33022	304.99593	806.66988	-396.11750	276.53323	825.60081	-397.46602	600.78074	861.94998	-55.37565	592.45603	858.90143	-261.64313	613.79777	863.19579	-61.32396	592.04998	864.99251	-225.57381	
